<svg width="194" height="139" viewBox="0 0 194 139" fill="none" xmlns="http://www.w3.org/2000/svg">
<g clip-path="url(#clip0_36_71)">
<g filter="url(#filter0_d_36_71)">
<path d="M128.314 9.08784C121.418 9.98335 115.6 15.5828 113.665 23.2101C112.809 26.5863 112.773 30.8579 113.594 34.3371C114.462 38.0838 116.351 41.6967 118.837 44.3935C119.893 45.536 121.828 47.1315 123.071 47.8829C124.409 48.6755 126.004 49.3857 127.306 49.7563C127.845 49.9004 128.22 50.0445 128.138 50.0753C127.974 50.1165 129.687 50.6003 130.824 50.8268C131.247 50.9091 131.622 50.9503 131.68 50.9194C131.821 50.837 131.798 51.0017 131.587 51.5782C131.329 52.2678 131.422 52.4634 131.927 52.3707C132.126 52.3399 132.49 52.2987 132.713 52.2884L133.123 52.2678L133.158 53.0398C133.182 53.678 133.111 54.0897 132.748 55.2528C132.197 57.0953 132.161 58.207 132.631 60.1421C133.018 61.7684 133.053 62.1081 133.182 65.2372C133.299 68.0267 133.323 68.1811 134.273 71.372C134.976 73.7188 135.117 74.9437 134.953 76.92C134.613 80.8829 134.566 82.2931 134.695 84.4237C134.8 85.9369 134.883 86.6059 135.012 86.7809C135.211 87.0485 135.328 87.0691 135.528 86.8529C135.633 86.7397 135.645 86.4 135.539 85.3501C135.363 83.4356 135.375 81.0476 135.598 78.5772C135.926 74.9334 135.774 73.4615 134.777 70.2603C134.132 68.2017 134.003 67.337 133.897 64.3623C133.803 61.9022 133.757 61.4802 133.416 60.0392C132.959 58.0835 132.982 57.435 133.581 55.3146C133.886 54.2544 134.003 53.5956 134.003 53.0295C134.003 52.3296 134.026 52.2369 134.237 52.1855C134.366 52.1546 134.449 52.1752 134.402 52.2266C134.366 52.2781 134.46 52.3193 134.624 52.3193C134.812 52.3193 135.129 52.1031 135.621 51.6399C136.196 51.115 136.56 50.8885 137.263 50.6106C140.841 49.1695 142.025 48.4902 143.914 46.7404C146.33 44.517 148.183 41.4085 149.192 37.8985C150.247 34.265 150.271 29.4684 149.251 25.8452C148.828 24.3321 148.394 23.1895 148.277 23.2616C148.207 23.3027 148.195 23.2719 148.242 23.1998C148.371 23.0248 148.218 22.5513 148.066 22.6337C147.972 22.6749 147.96 22.6234 148.019 22.4587C148.066 22.3249 148.066 22.2425 148.007 22.294C147.96 22.3352 147.737 21.944 147.526 21.4191C146.318 18.4958 144.418 15.7784 142.108 13.6889C139.316 11.1568 136.255 9.64367 132.9 9.1393C131.821 8.97461 129.37 8.95403 128.314 9.08784Z" fill="#FA00D2"/>
</g>
<g filter="url(#filter1_d_36_71)">
<path d="M66.4865 9.08108C59.9626 9.9077 54.4595 15.0765 52.6288 22.117C51.8189 25.2335 51.7856 29.1766 52.5623 32.388C53.3833 35.8466 55.1696 39.1816 57.5217 41.6709C58.5203 42.7256 60.351 44.1983 61.527 44.8919C62.7918 45.6235 64.3008 46.2791 65.5323 46.6212C66.0427 46.7542 66.3977 46.8872 66.3201 46.9157C66.1647 46.9537 67.7846 47.4003 68.8608 47.6093C69.2602 47.6853 69.6153 47.7233 69.6707 47.6948C69.8039 47.6188 69.7817 47.7708 69.582 48.3029C69.3379 48.9395 69.4266 49.12 69.9037 49.0345C70.0923 49.006 70.4363 48.968 70.6471 48.9585L71.0354 48.9395L71.0687 49.6521C71.0909 50.2412 71.0243 50.6213 70.6804 51.6949C70.1589 53.3957 70.1256 54.4218 70.5694 56.2081C70.9356 57.7093 70.9689 58.0229 71.0909 60.9113C71.2018 63.4862 71.224 63.6287 72.1227 66.5741C72.7884 68.7405 72.9216 69.8711 72.7662 71.6954C72.4445 75.3534 72.4001 76.6551 72.5221 78.6219C72.622 80.0186 72.6997 80.6362 72.8217 80.7977C73.0103 81.0448 73.1213 81.0638 73.3099 80.8643C73.4097 80.7597 73.4208 80.4462 73.321 79.477C73.1546 77.7098 73.1657 75.5055 73.3765 73.2251C73.6871 69.8616 73.5429 68.5029 72.5998 65.548C71.9896 63.6477 71.8675 62.8496 71.7677 60.1037C71.6789 57.8328 71.6345 57.4433 71.3128 56.1131C70.8801 54.3078 70.9023 53.7092 71.4681 51.7519C71.7566 50.7733 71.8675 50.1652 71.8675 49.6426C71.8675 48.9965 71.8897 48.911 72.0894 48.8635C72.2115 48.835 72.2892 48.854 72.2448 48.9015C72.2115 48.949 72.3002 48.987 72.4556 48.987C72.6331 48.987 72.9327 48.7875 73.3987 48.3599C73.9423 47.8753 74.2862 47.6663 74.9519 47.4098C78.3359 46.0796 79.4565 45.4525 81.2428 43.8372C83.5284 41.7849 85.2814 38.9155 86.2355 35.6755C87.2341 32.3215 87.2563 27.8939 86.291 24.5494C85.8916 23.1527 85.4811 22.098 85.3701 22.1645C85.3036 22.2025 85.2925 22.174 85.3369 22.1075C85.4589 21.946 85.3147 21.5089 85.1704 21.5849C85.0817 21.6229 85.0706 21.5754 85.126 21.4234C85.1704 21.2999 85.1704 21.2239 85.115 21.2714C85.0706 21.3094 84.8598 20.9483 84.6601 20.4638C83.5173 17.7654 81.7199 15.257 79.5342 13.3282C76.8936 10.9909 73.9978 9.59415 70.8246 9.12859C69.8039 8.97656 67.485 8.95756 66.4865 9.08108Z" fill="#FFF500"/>
</g>
<g filter="url(#filter2_d_36_71)">
<path d="M70.3628 62.1288C64.0827 62.636 58.6154 67.4885 56.5946 74.3681C55.7005 77.4133 55.5189 81.3134 56.1408 84.5282C56.7959 87.9895 58.3802 91.3746 60.5386 93.9499C61.455 95.041 63.1526 96.5855 64.2527 97.3278C65.4364 98.112 66.8568 98.8326 68.0234 99.2297C68.5072 99.3856 68.8422 99.5342 68.7668 99.5587C68.6165 99.5889 70.1511 100.108 71.174 100.366C71.5537 100.46 71.8923 100.515 71.9466 100.489C72.077 100.42 72.0499 100.57 71.8385 101.087C71.5805 101.705 71.6586 101.888 72.1189 101.826C72.3006 101.807 72.6315 101.785 72.8338 101.786L73.2064 101.786L73.2113 102.493C73.2101 103.076 73.1319 103.449 72.7617 104.495C72.1977 106.153 72.1268 107.167 72.4841 108.956C72.7778 110.459 72.7978 110.771 72.805 113.635C72.8135 116.188 72.8293 116.33 73.5783 119.287C74.1336 121.463 74.2182 122.588 74.0002 124.385C73.5531 127.99 73.4612 129.276 73.5034 131.228C73.546 132.615 73.5969 133.229 73.7077 133.395C73.879 133.648 73.9845 133.672 74.1727 133.484C74.2724 133.385 74.2949 133.076 74.236 132.112C74.1437 130.355 74.2381 128.175 74.5266 125.928C74.9519 122.615 74.8653 121.263 74.0742 118.295C73.5619 116.385 73.4753 115.59 73.4839 112.868C73.4851 110.616 73.4574 110.229 73.1997 108.897C72.8538 107.09 72.8978 106.499 73.5141 104.589C73.8276 103.635 73.9569 103.038 73.9768 102.521C74.0013 101.882 74.0258 101.798 74.2189 101.761C74.3369 101.738 74.4105 101.761 74.3662 101.806C74.3325 101.851 74.4161 101.893 74.5649 101.9C74.7349 101.909 75.0294 101.726 75.492 101.325C76.0311 100.871 76.3685 100.681 77.0159 100.459C80.3077 99.3035 81.4048 98.7364 83.1771 97.2232C85.4442 95.3012 87.2323 92.5454 88.2692 89.3848C89.353 86.1135 89.5424 81.7334 88.7448 78.378C88.4153 76.9769 88.0621 75.9138 87.9533 75.9743C87.8881 76.0087 87.8786 75.98 87.9236 75.9163C88.0467 75.7623 87.9251 75.3229 87.7841 75.3913C87.6976 75.4247 87.6888 75.3771 87.7477 75.2293C87.7949 75.1092 87.7978 75.034 87.7428 75.0784C87.6989 75.1139 87.5107 74.7466 87.3378 74.2576C86.3457 71.533 84.7193 68.9654 82.699 66.9527C80.2585 64.5141 77.5379 62.9942 74.5162 62.3824C73.5443 62.1833 71.324 62.0541 70.3628 62.1288Z" fill="#00FF00"/>
</g>
<g filter="url(#filter3_d_36_71)">
<path d="M158.9 44.0878C152.19 44.9833 146.53 50.5828 144.647 58.2101C143.814 61.5863 143.779 65.8579 144.578 69.337C145.423 73.0838 147.26 76.6967 149.679 79.3935C150.707 80.536 152.59 82.1315 153.799 82.8829C155.1 83.6755 156.652 84.3857 157.919 84.7563C158.444 84.9004 158.809 85.0445 158.729 85.0753C158.569 85.1165 160.236 85.6003 161.343 85.8268C161.753 85.9091 162.119 85.9503 162.176 85.9194C162.313 85.837 162.29 86.0017 162.084 86.5782C161.833 87.2678 161.925 87.4634 162.415 87.3707C162.609 87.3399 162.963 87.2987 163.18 87.2884L163.579 87.2678L163.614 88.0398C163.636 88.678 163.568 89.0897 163.214 90.2528C162.678 92.0953 162.644 93.207 163.1 95.1421C163.477 96.7684 163.511 97.1081 163.636 100.237C163.75 103.027 163.773 103.181 164.698 106.372C165.382 108.719 165.519 109.944 165.36 111.92C165.029 115.883 164.983 117.293 165.108 119.424C165.211 120.937 165.291 121.606 165.417 121.781C165.611 122.049 165.725 122.069 165.919 121.853C166.021 121.74 166.033 121.4 165.93 120.35C165.759 118.436 165.77 116.048 165.987 113.577C166.307 109.933 166.158 108.461 165.188 105.26C164.561 103.202 164.435 102.337 164.332 99.3623C164.241 96.9022 164.196 96.4802 163.865 95.0392C163.42 93.0835 163.442 92.435 164.024 90.3146C164.321 89.2544 164.435 88.5956 164.435 88.0295C164.435 87.3296 164.458 87.2369 164.663 87.1855C164.789 87.1546 164.869 87.1752 164.823 87.2266C164.789 87.2781 164.88 87.3193 165.04 87.3193C165.223 87.3193 165.531 87.1031 166.01 86.6399C166.569 86.115 166.923 85.8885 167.608 85.6106C171.088 84.1695 172.241 83.4902 174.078 81.7404C176.429 79.517 178.232 76.4085 179.214 72.8985C180.241 69.265 180.264 64.4684 179.271 60.8452C178.86 59.3321 178.438 58.1895 178.324 58.2616C178.255 58.3027 178.244 58.2719 178.289 58.1998C178.415 58.0248 178.267 57.5513 178.118 57.6337C178.027 57.6749 178.015 57.6234 178.073 57.4587C178.118 57.3249 178.118 57.2425 178.061 57.294C178.015 57.3352 177.799 56.944 177.593 56.4191C176.418 53.4958 174.569 50.7784 172.321 48.6889C169.605 46.1568 166.626 44.6437 163.362 44.1393C162.313 43.9746 159.927 43.954 158.9 44.0878Z" fill="#FF0000"/>
<path d="M158.9 44.0878C152.19 44.9833 146.53 50.5828 144.647 58.2101C143.814 61.5863 143.779 65.8579 144.578 69.337C145.423 73.0838 147.26 76.6967 149.679 79.3935C150.707 80.536 152.59 82.1315 153.799 82.8829C155.1 83.6755 156.652 84.3857 157.919 84.7563C158.444 84.9004 158.809 85.0445 158.729 85.0753C158.569 85.1165 160.236 85.6003 161.343 85.8268C161.753 85.9091 162.119 85.9503 162.176 85.9194C162.313 85.837 162.29 86.0017 162.084 86.5782C161.833 87.2678 161.925 87.4634 162.415 87.3707C162.609 87.3399 162.963 87.2987 163.18 87.2884L163.579 87.2678L163.614 88.0398C163.636 88.678 163.568 89.0897 163.214 90.2528C162.678 92.0953 162.644 93.207 163.1 95.1421C163.477 96.7684 163.511 97.1081 163.636 100.237C163.75 103.027 163.773 103.181 164.698 106.372C165.382 108.719 165.519 109.944 165.36 111.92C165.029 115.883 164.983 117.293 165.108 119.424C165.211 120.937 165.291 121.606 165.417 121.781C165.611 122.049 165.725 122.069 165.919 121.853C166.021 121.74 166.033 121.4 165.93 120.35C165.759 118.436 165.77 116.048 165.987 113.577C166.307 109.933 166.158 108.461 165.188 105.26C164.561 103.202 164.435 102.337 164.332 99.3623C164.241 96.9022 164.196 96.4802 163.865 95.0392C163.42 93.0835 163.442 92.435 164.024 90.3146C164.321 89.2544 164.435 88.5956 164.435 88.0295C164.435 87.3296 164.458 87.2369 164.663 87.1855C164.789 87.1546 164.869 87.1752 164.823 87.2266C164.789 87.2781 164.88 87.3193 165.04 87.3193C165.223 87.3193 165.531 87.1031 166.01 86.6399C166.569 86.115 166.923 85.8885 167.608 85.6106C171.088 84.1695 172.241 83.4902 174.078 81.7404C176.429 79.517 178.232 76.4085 179.214 72.8985C180.241 69.265 180.264 64.4684 179.271 60.8452C178.86 59.3321 178.438 58.1895 178.324 58.2616C178.255 58.3027 178.244 58.2719 178.289 58.1998C178.415 58.0248 178.267 57.5513 178.118 57.6337C178.027 57.6749 178.015 57.6234 178.073 57.4587C178.118 57.3249 178.118 57.2425 178.061 57.294C178.015 57.3352 177.799 56.944 177.593 56.4191C176.418 53.4958 174.569 50.7784 172.321 48.6889C169.605 46.1568 166.626 44.6437 163.362 44.1393C162.313 43.9746 159.927 43.954 158.9 44.0878Z" fill="#FF0000"/>
<path d="M158.9 44.0878C152.19 44.9833 146.53 50.5828 144.647 58.2101C143.814 61.5863 143.779 65.8579 144.578 69.337C145.423 73.0838 147.26 76.6967 149.679 79.3935C150.707 80.536 152.59 82.1315 153.799 82.8829C155.1 83.6755 156.652 84.3857 157.919 84.7563C158.444 84.9004 158.809 85.0445 158.729 85.0753C158.569 85.1165 160.236 85.6003 161.343 85.8268C161.753 85.9091 162.119 85.9503 162.176 85.9194C162.313 85.837 162.29 86.0017 162.084 86.5782C161.833 87.2678 161.925 87.4634 162.415 87.3707C162.609 87.3399 162.963 87.2987 163.18 87.2884L163.579 87.2678L163.614 88.0398C163.636 88.678 163.568 89.0897 163.214 90.2528C162.678 92.0953 162.644 93.207 163.1 95.1421C163.477 96.7684 163.511 97.1081 163.636 100.237C163.75 103.027 163.773 103.181 164.698 106.372C165.382 108.719 165.519 109.944 165.36 111.92C165.029 115.883 164.983 117.293 165.108 119.424C165.211 120.937 165.291 121.606 165.417 121.781C165.611 122.049 165.725 122.069 165.919 121.853C166.021 121.74 166.033 121.4 165.93 120.35C165.759 118.436 165.77 116.048 165.987 113.577C166.307 109.933 166.158 108.461 165.188 105.26C164.561 103.202 164.435 102.337 164.332 99.3623C164.241 96.9022 164.196 96.4802 163.865 95.0392C163.42 93.0835 163.442 92.435 164.024 90.3146C164.321 89.2544 164.435 88.5956 164.435 88.0295C164.435 87.3296 164.458 87.2369 164.663 87.1855C164.789 87.1546 164.869 87.1752 164.823 87.2266C164.789 87.2781 164.88 87.3193 165.04 87.3193C165.223 87.3193 165.531 87.1031 166.01 86.6399C166.569 86.115 166.923 85.8885 167.608 85.6106C171.088 84.1695 172.241 83.4902 174.078 81.7404C176.429 79.517 178.232 76.4085 179.214 72.8985C180.241 69.265 180.264 64.4684 179.271 60.8452C178.86 59.3321 178.438 58.1895 178.324 58.2616C178.255 58.3027 178.244 58.2719 178.289 58.1998C178.415 58.0248 178.267 57.5513 178.118 57.6337C178.027 57.6749 178.015 57.6234 178.073 57.4587C178.118 57.3249 178.118 57.2425 178.061 57.294C178.015 57.3352 177.799 56.944 177.593 56.4191C176.418 53.4958 174.569 50.7784 172.321 48.6889C169.605 46.1568 166.626 44.6437 163.362 44.1393C162.313 43.9746 159.927 43.954 158.9 44.0878Z" fill="#FF0000"/>
</g>
<g filter="url(#filter4_d_36_71)">
<path d="M98.4865 34.0811C91.9626 34.9077 86.4595 40.0765 84.6288 47.117C83.8189 50.2335 83.7856 54.1766 84.5623 57.388C85.3833 60.8466 87.1696 64.1816 89.5217 66.6709C90.5203 67.7256 92.351 69.1983 93.527 69.8919C94.7918 70.6235 96.3008 71.2791 97.5323 71.6212C98.0427 71.7542 98.3977 71.8872 98.3201 71.9157C98.1647 71.9537 99.7846 72.4003 100.861 72.6093C101.26 72.6853 101.615 72.7233 101.671 72.6948C101.804 72.6188 101.782 72.7708 101.582 73.3029C101.338 73.9395 101.427 74.12 101.904 74.0345C102.092 74.006 102.436 73.968 102.647 73.9585L103.035 73.9395L103.069 74.6521C103.091 75.2412 103.024 75.6213 102.68 76.6949C102.159 78.3957 102.126 79.4218 102.569 81.2081C102.936 82.7093 102.969 83.0229 103.091 85.9113C103.202 88.4862 103.224 88.6287 104.123 91.5741C104.788 93.7405 104.922 94.8711 104.766 96.6954C104.444 100.353 104.4 101.655 104.522 103.622C104.622 105.019 104.7 105.636 104.822 105.798C105.01 106.045 105.121 106.064 105.31 105.864C105.41 105.76 105.421 105.446 105.321 104.477C105.155 102.71 105.166 100.505 105.376 98.2251C105.687 94.8616 105.543 93.5029 104.6 90.548C103.99 88.6477 103.868 87.8496 103.768 85.1037C103.679 82.8328 103.635 82.4433 103.313 81.1131C102.88 79.3078 102.902 78.7092 103.468 76.7519C103.757 75.7733 103.868 75.1652 103.868 74.6426C103.868 73.9965 103.89 73.911 104.089 73.8635C104.211 73.835 104.289 73.854 104.245 73.9015C104.211 73.949 104.3 73.987 104.456 73.987C104.633 73.987 104.933 73.7875 105.399 73.3599C105.942 72.8753 106.286 72.6663 106.952 72.4098C110.336 71.0796 111.457 70.4525 113.243 68.8372C115.528 66.7849 117.281 63.9155 118.236 60.6755C119.234 57.3215 119.256 52.8939 118.291 49.5494C117.892 48.1527 117.481 47.098 117.37 47.1645C117.304 47.2025 117.292 47.174 117.337 47.1075C117.459 46.946 117.315 46.5089 117.17 46.5849C117.082 46.6229 117.071 46.5754 117.126 46.4234C117.17 46.2999 117.17 46.2239 117.115 46.2714C117.071 46.3094 116.86 45.9483 116.66 45.4638C115.517 42.7654 113.72 40.257 111.534 38.3282C108.894 35.9909 105.998 34.5941 102.825 34.1286C101.804 33.9766 99.485 33.9576 98.4865 34.0811Z" fill="#00FFC2"/>
</g>
<g filter="url(#filter5_d_36_71)">
<path d="M118.104 80.1986C111.823 80.7059 106.356 85.5584 104.335 92.4379C103.441 95.4831 103.26 99.3832 103.882 102.598C104.537 106.059 106.121 109.444 108.279 112.02C109.196 113.111 110.893 114.655 111.993 115.398C113.177 116.182 114.598 116.902 115.764 117.3C116.248 117.455 116.583 117.604 116.507 117.628C116.357 117.659 117.892 118.178 118.915 118.436C119.294 118.53 119.633 118.585 119.687 118.559C119.818 118.49 119.791 118.64 119.579 119.156C119.321 119.775 119.399 119.958 119.86 119.896C120.041 119.877 120.372 119.855 120.574 119.856L120.947 119.856L120.952 120.562C120.951 121.146 120.873 121.519 120.502 122.565C119.938 124.223 119.868 125.237 120.225 127.026C120.519 128.529 120.538 128.841 120.546 131.704C120.554 134.258 120.57 134.4 121.319 137.357C121.874 139.532 121.959 140.658 121.741 142.455C121.294 146.06 121.202 147.346 121.244 149.298C121.287 150.684 121.338 151.299 121.448 151.465C121.62 151.718 121.725 151.742 121.913 151.554C122.013 151.455 122.036 151.145 121.977 150.182C121.884 148.425 121.979 146.244 122.267 143.998C122.693 140.685 122.606 139.333 121.815 136.364C121.303 134.455 121.216 133.659 121.225 130.938C121.226 128.686 121.198 128.299 120.94 126.967C120.595 125.16 120.639 124.569 121.255 122.659C121.568 121.705 121.698 121.108 121.717 120.591C121.742 119.952 121.767 119.868 121.96 119.831C122.078 119.808 122.151 119.831 122.107 119.876C122.073 119.921 122.157 119.963 122.306 119.97C122.476 119.979 122.77 119.796 123.233 119.395C123.772 118.941 124.109 118.751 124.757 118.528C128.048 117.373 129.146 116.806 130.918 115.293C133.185 113.371 134.973 110.615 136.01 107.455C137.094 104.183 137.283 99.8032 136.486 96.4478C136.156 95.0467 135.803 93.9836 135.694 94.0441C135.629 94.0786 135.619 94.0498 135.664 93.9861C135.787 93.8321 135.666 93.3928 135.525 93.4611C135.438 93.4945 135.43 93.4469 135.488 93.2992C135.536 93.179 135.539 93.1038 135.484 93.1482C135.44 93.1837 135.251 92.8164 135.079 92.3274C134.086 89.6029 132.46 87.0352 130.44 85.0226C127.999 82.584 125.279 81.064 122.257 80.4522C121.285 80.2532 119.065 80.1239 118.104 80.1986Z" fill="#585495"/>
</g>
<g filter="url(#filter6_d_36_71)">
<path d="M27.3885 34.1761C24.7734 34.6066 21.9538 35.6895 19.6601 37.1245C17.1619 38.7161 14.5176 41.3384 12.6476 44.0911C10.4416 47.3396 8.80539 51.7622 8.16257 56.1587C7.94343 57.7634 7.94343 62.6557 8.17718 64.2473C9.38976 72.388 13.3489 79.0415 19.368 83.0597C20.8581 84.0642 23.2687 85.2123 24.8026 85.6559C25.387 85.8124 25.8253 85.9951 25.7815 86.0472C25.7522 86.0994 25.8691 86.1125 26.0444 86.0603C26.2197 86.0211 26.322 86.0472 26.2636 86.1125C26.2197 86.1907 26.8041 86.4256 27.5638 86.6474C28.4404 86.9083 28.9371 86.9996 28.9371 86.9083C28.9371 86.817 29.0247 86.8561 29.1124 86.9996C29.2293 87.1953 29.2001 87.404 28.9371 87.952C28.5426 88.813 28.6157 89.087 29.2731 88.9957C29.5215 88.9565 29.8721 88.8913 30.0474 88.8391C30.2519 88.7869 30.4418 88.826 30.6025 88.9826C30.997 89.3348 30.7925 90.5742 29.9451 92.8964C29.0247 95.4795 28.9809 95.9883 29.3754 98.8846C29.7114 101.246 29.7114 103.046 29.4338 106.386C29.3169 107.73 29.5799 109.908 30.2081 112.7C30.6902 114.84 30.7486 115.27 30.7486 117.28C30.7633 118.989 30.6756 119.928 30.4272 121.376C29.8136 124.742 29.6529 126.36 29.5653 129.504C29.4776 132.752 29.5215 133 30.1058 133C30.2519 133 30.4126 132.909 30.4565 132.791C30.5003 132.674 30.5441 131.421 30.5441 129.999C30.5441 127.181 30.661 125.851 31.2015 122.524C31.9758 117.827 31.9466 116.092 31.0554 111.996C30.4126 109.021 30.3104 107.56 30.5295 104.233C30.6902 101.911 30.6756 101.415 30.4418 99.7978C30.3104 98.7932 30.1935 97.319 30.1935 96.5363C30.1935 95.2056 30.2373 94.9838 30.8071 93.4704C31.5229 91.5396 31.8443 90.3655 31.8736 89.5566C31.8882 89.1913 31.932 89.1 31.9612 89.3218C32.005 89.5697 32.1511 89.7132 32.4579 89.8045C33.0861 90.0002 33.4806 89.7784 34.0504 88.9304C34.9415 87.5736 35.1461 87.4432 37.6297 86.6213C40.4493 85.6819 42.4946 84.6122 44.5399 83.0206C48.8642 79.6286 52.1952 74.0188 53.3931 68.0959C54.2697 63.7776 54.1967 58.9767 53.174 54.9193C52.7357 53.1581 51.6985 50.288 51.5378 50.3793C51.4647 50.4185 51.4501 50.3271 51.5085 50.1575C51.567 49.9879 51.5524 49.8966 51.4793 49.9358C51.4063 49.9749 51.1579 49.5313 50.9242 48.9573C50.3106 47.3787 48.6743 44.5216 47.5348 43.0213C43.8678 38.1291 38.9299 35.0241 33.4952 34.1761C31.9612 33.9413 28.8494 33.9413 27.3885 34.1761Z" fill="#0000FF"/>
</g>
</g>
<defs>
<filter id="filter0_d_36_71" x="104" y="8" width="47" height="88" filterUnits="userSpaceOnUse" color-interpolation-filters="sRGB">
<feFlood flood-opacity="0" result="BackgroundImageFix"/>
<feColorMatrix in="SourceAlpha" type="matrix" values="0 0 0 0 0 0 0 0 0 0 0 0 0 0 0 0 0 0 127 0" result="hardAlpha"/>
<feOffset dx="-4" dy="4"/>
<feGaussianBlur stdDeviation="2.5"/>
<feComposite in2="hardAlpha" operator="out"/>
<feColorMatrix type="matrix" values="0 0 0 0 0 0 0 0 0 0 0 0 0 0 0 0 0 0 0.25 0"/>
<feBlend mode="normal" in2="BackgroundImageFix" result="effect1_dropShadow_36_71"/>
<feBlend mode="normal" in="SourceGraphic" in2="effect1_dropShadow_36_71" result="shape"/>
</filter>
<filter id="filter1_d_36_71" x="43" y="8" width="45" height="82" filterUnits="userSpaceOnUse" color-interpolation-filters="sRGB">
<feFlood flood-opacity="0" result="BackgroundImageFix"/>
<feColorMatrix in="SourceAlpha" type="matrix" values="0 0 0 0 0 0 0 0 0 0 0 0 0 0 0 0 0 0 127 0" result="hardAlpha"/>
<feOffset dx="-4" dy="4"/>
<feGaussianBlur stdDeviation="2.5"/>
<feComposite in2="hardAlpha" operator="out"/>
<feColorMatrix type="matrix" values="0 0 0 0 0 0 0 0 0 0 0 0 0 0 0 0 0 0 0.25 0"/>
<feBlend mode="normal" in2="BackgroundImageFix" result="effect1_dropShadow_36_71"/>
<feBlend mode="normal" in="SourceGraphic" in2="effect1_dropShadow_36_71" result="shape"/>
</filter>
<filter id="filter2_d_36_71" x="46.7744" y="61.1074" width="43.46" height="81.5005" filterUnits="userSpaceOnUse" color-interpolation-filters="sRGB">
<feFlood flood-opacity="0" result="BackgroundImageFix"/>
<feColorMatrix in="SourceAlpha" type="matrix" values="0 0 0 0 0 0 0 0 0 0 0 0 0 0 0 0 0 0 127 0" result="hardAlpha"/>
<feOffset dx="-4" dy="4"/>
<feGaussianBlur stdDeviation="2.5"/>
<feComposite in2="hardAlpha" operator="out"/>
<feColorMatrix type="matrix" values="0 0 0 0 0 0 0 0 0 0 0 0 0 0 0 0 0 0 0.25 0"/>
<feBlend mode="normal" in2="BackgroundImageFix" result="effect1_dropShadow_36_71"/>
<feBlend mode="normal" in="SourceGraphic" in2="effect1_dropShadow_36_71" result="shape"/>
</filter>
<filter id="filter3_d_36_71" x="135" y="43" width="46" height="88" filterUnits="userSpaceOnUse" color-interpolation-filters="sRGB">
<feFlood flood-opacity="0" result="BackgroundImageFix"/>
<feColorMatrix in="SourceAlpha" type="matrix" values="0 0 0 0 0 0 0 0 0 0 0 0 0 0 0 0 0 0 127 0" result="hardAlpha"/>
<feOffset dx="-4" dy="4"/>
<feGaussianBlur stdDeviation="2.5"/>
<feComposite in2="hardAlpha" operator="out"/>
<feColorMatrix type="matrix" values="0 0 0 0 0 0 0 0 0 0 0 0 0 0 0 0 0 0 0.25 0"/>
<feBlend mode="normal" in2="BackgroundImageFix" result="effect1_dropShadow_36_71"/>
<feBlend mode="normal" in="SourceGraphic" in2="effect1_dropShadow_36_71" result="shape"/>
</filter>
<filter id="filter4_d_36_71" x="75" y="33" width="45" height="82" filterUnits="userSpaceOnUse" color-interpolation-filters="sRGB">
<feFlood flood-opacity="0" result="BackgroundImageFix"/>
<feColorMatrix in="SourceAlpha" type="matrix" values="0 0 0 0 0 0 0 0 0 0 0 0 0 0 0 0 0 0 127 0" result="hardAlpha"/>
<feOffset dx="-4" dy="4"/>
<feGaussianBlur stdDeviation="2.5"/>
<feComposite in2="hardAlpha" operator="out"/>
<feColorMatrix type="matrix" values="0 0 0 0 0 0 0 0 0 0 0 0 0 0 0 0 0 0 0.25 0"/>
<feBlend mode="normal" in2="BackgroundImageFix" result="effect1_dropShadow_36_71"/>
<feBlend mode="normal" in="SourceGraphic" in2="effect1_dropShadow_36_71" result="shape"/>
</filter>
<filter id="filter5_d_36_71" x="94.5151" y="79.1772" width="43.46" height="81.5005" filterUnits="userSpaceOnUse" color-interpolation-filters="sRGB">
<feFlood flood-opacity="0" result="BackgroundImageFix"/>
<feColorMatrix in="SourceAlpha" type="matrix" values="0 0 0 0 0 0 0 0 0 0 0 0 0 0 0 0 0 0 127 0" result="hardAlpha"/>
<feOffset dx="-4" dy="4"/>
<feGaussianBlur stdDeviation="2.5"/>
<feComposite in2="hardAlpha" operator="out"/>
<feColorMatrix type="matrix" values="0 0 0 0 0 0 0 0 0 0 0 0 0 0 0 0 0 0 0.25 0"/>
<feBlend mode="normal" in2="BackgroundImageFix" result="effect1_dropShadow_36_71"/>
<feBlend mode="normal" in="SourceGraphic" in2="effect1_dropShadow_36_71" result="shape"/>
</filter>
<filter id="filter6_d_36_71" x="-1" y="33" width="56" height="109" filterUnits="userSpaceOnUse" color-interpolation-filters="sRGB">
<feFlood flood-opacity="0" result="BackgroundImageFix"/>
<feColorMatrix in="SourceAlpha" type="matrix" values="0 0 0 0 0 0 0 0 0 0 0 0 0 0 0 0 0 0 127 0" result="hardAlpha"/>
<feOffset dx="-4" dy="4"/>
<feGaussianBlur stdDeviation="2.5"/>
<feComposite in2="hardAlpha" operator="out"/>
<feColorMatrix type="matrix" values="0 0 0 0 0 0 0 0 0 0 0 0 0 0 0 0 0 0 0.25 0"/>
<feBlend mode="normal" in2="BackgroundImageFix" result="effect1_dropShadow_36_71"/>
<feBlend mode="normal" in="SourceGraphic" in2="effect1_dropShadow_36_71" result="shape"/>
</filter>
<clipPath id="clip0_36_71">
<rect width="194" height="139" fill="white"/>
</clipPath>
</defs>
</svg>
